<svg width="24" height="24" viewBox="0 0 24 24" fill="none" xmlns="http://www.w3.org/2000/svg">
<path d="M13.2826 12.0001L18.7339 6.54851C19.0887 6.1939 19.0887 5.62056 18.7339 5.26595C18.3793 4.91135 17.806 4.91135 17.4514 5.26595L11.9999 10.7176L6.5486 5.26595C6.19384 4.91135 5.62067 4.91135 5.26607 5.26595C4.91131 5.62056 4.91131 6.1939 5.26607 6.54851L10.7174 12.0001L5.26607 17.4517C4.91131 17.8063 4.91131 18.3797 5.26607 18.7343C5.44279 18.9111 5.67514 19 5.90734 19C6.13953 19 6.37172 18.9111 6.5486 18.7343L11.9999 13.2827L17.4514 18.7343C17.6283 18.9111 17.8605 19 18.0927 19C18.3249 19 18.557 18.9111 18.7339 18.7343C19.0887 18.3797 19.0887 17.8063 18.7339 17.4517L13.2826 12.0001Z" fill="#35373A"/>
</svg>
